<svg width="24" height="24" viewBox="0 0 24 24" fill="none" xmlns="http://www.w3.org/2000/svg">
<path d="M12 23C18.0751 23 23 18.0751 23 12C23 5.92487 18.0751 1 12 1C5.92487 1 1 5.92487 1 12C1 18.0751 5.92487 23 12 23Z" stroke="#CB585A" stroke-linecap="round" stroke-linejoin="round"/>
<path d="M8.69029 16.1517C8.99778 16.5398 9.39395 16.8484 9.84549 17.0516C10.297 17.2548 10.7908 17.3466 11.2852 17.3194H12.8421C13.5303 17.3194 14.1903 17.046 14.6769 16.5593C15.1636 16.0727 15.437 15.4127 15.437 14.7245C15.437 14.0363 15.1636 13.3763 14.6769 12.8896C14.1903 12.403 13.5303 12.1296 12.8421 12.1296H11.1554C10.4672 12.1296 9.8072 11.8562 9.32057 11.3696C8.83393 10.883 8.56055 10.2229 8.56055 9.53475C8.56055 8.84654 8.83393 8.18653 9.32057 7.69989C9.8072 7.21326 10.4672 6.93987 11.1554 6.93987H12.7123C13.88 6.93987 14.6585 7.19936 15.3072 8.10757M11.9339 5.5127V18.4871" stroke="#CB585A" stroke-width="1.5" stroke-linecap="round" stroke-linejoin="round"/>
</svg>
