<svg width="24" height="23" viewBox="0 0 28 21" fill="none" xmlns="http://www.w3.org/2000/svg">
<path fill-rule="evenodd" clip-rule="evenodd" d="M1.60352 0C0.775096 0 0.103516 0.67158 0.103516 1.5C0.103516 2.32842 0.775096 3 1.60352 3H25.6035C26.432 3 27.1035 2.32842 27.1035 1.5C27.1035 0.67158 26.432 0 25.6035 0H1.60352ZM0.103516 10.5C0.103516 9.67155 0.775096 9 1.60352 9H25.6035C26.432 9 27.1035 9.67155 27.1035 10.5C27.1035 11.3284 26.432 12 25.6035 12H1.60352C0.775096 12 0.103516 11.3284 0.103516 10.5ZM0.103516 19.5C0.103516 18.6715 0.775096 18 1.60352 18H25.6035C26.432 18 27.1035 18.6715 27.1035 19.5C27.1035 20.3284 26.432 21 25.6035 21H1.60352C0.775096 21 0.103516 20.3284 0.103516 19.5Z" fill="#CB585A"/>
</svg>
