<svg width="18" height="22" viewBox="0 0 18 22" fill="none" xmlns="http://www.w3.org/2000/svg">
<path d="M0.25 0.628571C0.25 0.408122 0.417545 0.25 0.6 0.25H17.4C17.5825 0.25 17.75 0.408121 17.75 0.628571V21.3714C17.75 21.5919 17.5825 21.75 17.4 21.75H0.6C0.417545 21.75 0.25 21.5919 0.25 21.3714V0.628571ZM14.4 4.77857H4.2C3.72006 4.77857 3.35 5.18239 3.35 5.65714C3.35 6.13189 3.72006 6.53571 4.2 6.53571H14.4C14.8799 6.53571 15.25 6.13189 15.25 5.65714C15.25 5.18239 14.8799 4.77857 14.4 4.77857ZM11.4 8.55H4.2C3.72006 8.55 3.35 8.95382 3.35 9.42857C3.35 9.90332 3.72006 10.3071 4.2 10.3071H11.4C11.8799 10.3071 12.25 9.90332 12.25 9.42857C12.25 8.95382 11.8799 8.55 11.4 8.55ZM14.4 12.3214H4.2C3.72006 12.3214 3.35 12.7253 3.35 13.2C3.35 13.6748 3.72006 14.0786 4.2 14.0786H14.4C14.8799 14.0786 15.25 13.6748 15.25 13.2C15.25 12.7253 14.8799 12.3214 14.4 12.3214ZM11.4 16.0929H4.2C3.72006 16.0929 3.35 16.4967 3.35 16.9714C3.35 17.4462 3.72006 17.85 4.2 17.85H11.4C11.8799 17.85 12.25 17.4462 12.25 16.9714C12.25 16.4967 11.8799 16.0929 11.4 16.0929Z" fill="#CB585A" stroke="white" stroke-width="0.5"/>
</svg>
