<svg width="18" height="22" viewBox="0 0 18 22" fill="none" xmlns="http://www.w3.org/2000/svg">
<path d="M0.5 0.628571C0.5 0.535272 0.56629 0.5 0.6 0.5H17.4C17.4337 0.5 17.5 0.53527 17.5 0.628571V21.3714C17.5 21.4647 17.4337 21.5 17.4 21.5H0.6C0.566289 21.5 0.5 21.4647 0.5 21.3714V0.628571ZM14.4 4.52857H4.2C3.57131 4.52857 3.1 5.05524 3.1 5.65714C3.1 6.25904 3.57131 6.78571 4.2 6.78571H14.4C15.0287 6.78571 15.5 6.25904 15.5 5.65714C15.5 5.05524 15.0287 4.52857 14.4 4.52857ZM11.4 8.3H4.2C3.57131 8.3 3.1 8.82667 3.1 9.42857C3.1 10.0305 3.57131 10.5571 4.2 10.5571H11.4C12.0287 10.5571 12.5 10.0305 12.5 9.42857C12.5 8.82667 12.0287 8.3 11.4 8.3ZM14.4 12.0714H4.2C3.57131 12.0714 3.1 12.5981 3.1 13.2C3.1 13.8019 3.57131 14.3286 4.2 14.3286H14.4C15.0287 14.3286 15.5 13.8019 15.5 13.2C15.5 12.5981 15.0287 12.0714 14.4 12.0714ZM11.4 15.8429H4.2C3.57131 15.8429 3.1 16.3695 3.1 16.9714C3.1 17.5733 3.57131 18.1 4.2 18.1H11.4C12.0287 18.1 12.5 17.5733 12.5 16.9714C12.5 16.3695 12.0287 15.8429 11.4 15.8429Z" stroke="#CB585A"/>
</svg>
