<svg width="24" height="24" viewBox="0 0 24 24" fill="none" xmlns="http://www.w3.org/2000/svg">
<path d="M12.1195 13.53H11.9495C9.67954 13.46 7.97954 11.69 7.97954 9.50998C7.97954 7.28998 9.78954 5.47998 12.0095 5.47998C14.2295 5.47998 16.0395 7.28998 16.0395 9.50998C16.0416 10.5545 15.6365 11.5586 14.9101 12.3092C14.1838 13.0598 13.1935 13.4977 12.1495 13.53H12.1195ZM11.9995 6.96998C10.5995 6.96998 9.46954 8.10998 9.46954 9.49998C9.46653 10.1547 9.71848 10.785 10.1721 11.2572C10.6256 11.7295 11.2452 12.0066 11.8995 12.03C11.9758 12.0194 12.0532 12.0194 12.1295 12.03C12.7773 11.9954 13.3872 11.7139 13.8337 11.2432C14.2801 10.7726 14.5292 10.1487 14.5295 9.49998C14.5295 8.10998 13.3995 6.96998 11.9995 6.96998ZM11.9995 22.75C9.30954 22.75 6.73954 21.75 4.74954 19.93C4.66346 19.8507 4.59697 19.7526 4.55532 19.6433C4.51367 19.5339 4.498 19.4164 4.50954 19.3C4.63954 18.11 5.37954 17 6.60954 16.18C9.58954 14.2 14.4195 14.2 17.3895 16.18C18.6195 17.01 19.3595 18.11 19.4895 19.3C19.5195 19.54 19.4295 19.77 19.2495 19.93C17.2717 21.7454 14.6842 22.7519 11.9995 22.75ZM6.07954 19.1C7.73881 20.4902 9.83484 21.2515 11.9995 21.25C14.1695 21.25 16.2595 20.49 17.9195 19.1C17.7395 18.49 17.2595 17.9 16.5495 17.42C14.0895 15.78 9.91954 15.78 7.43954 17.42C6.72954 17.9 6.25954 18.49 6.07954 19.1Z" fill="#CB585A"/>
<path d="M12 22.75C6.07 22.75 1.25 17.93 1.25 12C1.25 6.07 6.07 1.25 12 1.25C17.93 1.25 22.75 6.07 22.75 12C22.75 17.93 17.93 22.75 12 22.75ZM12 2.75C6.9 2.75 2.75 6.9 2.75 12C2.75 17.1 6.9 21.25 12 21.25C17.1 21.25 21.25 17.1 21.25 12C21.25 6.9 17.1 2.75 12 2.75Z" fill="#CB585A"/>
</svg>
