<svg width="14" height="14" viewBox="0 0 14 14" fill="none" xmlns="http://www.w3.org/2000/svg">
<path d="M7.41847 0.272583C7.33986 0.105671 7.17764 0 6.99999 0C6.82236 0 6.66013 0.105671 6.58153 0.272583L4.6711 4.32877L0.399615 4.97874C0.223818 5.00549 0.077762 5.1345 0.0228605 5.31153C-0.0320411 5.48855 0.013735 5.68289 0.140941 5.81281L3.23191 8.96993L2.50204 13.4283C2.472 13.6118 2.54397 13.7972 2.68768 13.9066C2.83139 14.016 3.02192 14.0305 3.17915 13.9438L6.99999 11.8389L10.8209 13.9438C10.9781 14.0305 11.1686 14.016 11.3124 13.9066C11.456 13.7972 11.528 13.6118 11.498 13.4283L10.7681 8.96993L13.859 5.81281C13.9863 5.68289 14.0321 5.48855 13.9771 5.31153C13.9222 5.1345 13.7762 5.00549 13.6004 4.97874L9.3289 4.32877L7.41847 0.272583Z" fill="#F1C40F"/>
</svg>
