<svg width="27" height="22" viewBox="0 0 27 22" fill="none" xmlns="http://www.w3.org/2000/svg">
<path d="M14.162 21H6.26229C2.31245 21 1 18.5059 1 16V5.99999C1 2.24703 2.31245 1 6.26229 1H14.162C18.1118 1 19.4243 2.24703 19.4243 5.99999V16C19.4243 19.753 18.0993 21 14.162 21Z" stroke="#CB585A" stroke-width="1.5" stroke-linecap="round" stroke-linejoin="round"/>
<path d="M22.9006 17.0568L19.4258 14.7409V7.24679L22.9006 4.93088C24.6006 3.80261 26.0005 4.49145 26.0005 6.47482V15.5247C26.0005 17.5081 24.6006 18.1969 22.9006 17.0568Z" stroke="#CB585A" stroke-width="1.5" stroke-linecap="round" stroke-linejoin="round"/>
<path d="M12.8749 9.81245C13.9104 9.81245 14.7499 9.01483 14.7499 8.03098C14.7499 7.0471 13.9104 6.24951 12.8749 6.24951C11.8395 6.24951 11 7.0471 11 8.03098C11 9.01483 11.8395 9.81245 12.8749 9.81245Z" stroke="#CB585A" stroke-width="1.5" stroke-linecap="round" stroke-linejoin="round"/>
</svg>
