<svg width="27" height="22" viewBox="0 0 27 22" fill="none" xmlns="http://www.w3.org/2000/svg">
<path d="M14.162 21H6.26229C2.31245 21 1 18.5059 1 16V5.99999C1 2.24703 2.31245 1 6.26229 1H14.162C18.1118 1 19.4243 2.24703 19.4243 5.99999V16C19.4243 19.753 18.0993 21 14.162 21Z" fill="#CB585A" stroke="white" stroke-width="1.5" stroke-linecap="round" stroke-linejoin="round"/>
<path d="M22.9006 17.0568L19.4258 14.7409V7.24679L22.9006 4.93088C24.6006 3.80261 26.0005 4.49145 26.0005 6.47482V15.5247C26.0005 17.5081 24.6006 18.1969 22.9006 17.0568Z" fill="#CB585A" stroke="white" stroke-width="1.5" stroke-linecap="round" stroke-linejoin="round"/>
<path d="M12.75 9.74951C13.7165 9.74951 14.5 8.96598 14.5 7.99951C14.5 7.03301 13.7165 6.24951 12.75 6.24951C11.7835 6.24951 11 7.03301 11 7.99951C11 8.96598 11.7835 9.74951 12.75 9.74951Z" fill="white" stroke="white" stroke-linecap="round" stroke-linejoin="round"/>
</svg>
